<svg xmlns="http://www.w3.org/2000/svg" xmlns:xlink="http://www.w3.org/1999/xlink" width="1920" zoomAndPan="magnify" viewBox="0 0 1440 809.999993" height="1080" preserveAspectRatio="xMidYMid meet" version="1.0"><rect x="-144" width="1728" fill="#ffffff" y="-80.999999" height="971.999992" fill-opacity="1"/><rect x="-144" width="1728" fill="#ffffff" y="-80.999999" height="971.999992" fill-opacity="1"/><path fill="#1800ad" d="M 895.765625 630.632812 C 892.101562 635.917969 884.0625 632.765625 872.917969 621.679688 C 866.121094 614.914062 859.867188 607.59375 852.78125 598.105469 C 851.082031 595.832031 845.820312 593.261719 838.761719 591.261719 C 837.265625 590.835938 835.4375 590.277344 834.695312 590.019531 C 831.335938 588.84375 824.878906 587.722656 820.96875 587.636719 C 817.023438 587.554688 816.546875 587.640625 814.78125 588.753906 C 813.199219 589.75 812.871094 590.199219 812.871094 591.363281 C 812.871094 592.136719 813.296875 593.453125 813.816406 594.292969 C 815.359375 596.796875 814.023438 598.222656 812.089844 596.136719 C 809.957031 593.835938 809.703125 588.164062 811.59375 585.105469 C 813.152344 582.585938 814.640625 582.09375 820.746094 582.082031 C 825.210938 582.074219 827.078125 582.300781 831.546875 583.390625 C 834.515625 584.117188 837.25 584.945312 837.621094 585.226562 C 838.289062 585.742188 842.078125 587.246094 842.699219 587.246094 C 843.914062 587.246094 842.378906 585.152344 838.441406 581.441406 C 832.425781 575.769531 826.816406 569.433594 825.070312 566.34375 C 823.910156 564.289062 823.671875 563.371094 823.671875 561.007812 C 823.671875 558.554688 823.871094 557.851562 825.097656 555.996094 C 826.609375 553.714844 828.6875 552.152344 830.21875 552.152344 C 831.246094 552.148438 832.222656 551.355469 832.222656 550.527344 C 832.222656 550.226562 831.5625 549.191406 830.757812 548.226562 C 829.953125 547.261719 828.902344 545.296875 828.417969 543.863281 L 827.542969 541.257812 L 828.757812 539.101562 C 829.425781 537.914062 829.96875 536.667969 829.96875 536.332031 C 829.96875 536 828.636719 534.328125 827.007812 532.617188 C 823.25 528.675781 821.867188 525.703125 821.878906 521.605469 C 821.886719 519.09375 822.097656 518.292969 823.210938 516.515625 C 825.050781 513.589844 827.695312 512.125 831.742188 511.785156 C 841.320312 510.984375 852.980469 517.710938 859.050781 527.546875 C 860.523438 529.933594 860.753906 530.699219 860.929688 533.769531 L 861.132812 537.273438 L 859.574219 538.835938 C 857.785156 540.625 855.929688 541.265625 854.9375 540.445312 C 853.9375 539.613281 854.125 538.761719 855.507812 537.882812 C 857.9375 536.335938 858.011719 535.230469 855.894531 532.117188 C 850.828125 524.660156 840.328125 517.941406 832.644531 517.25 C 828.257812 516.855469 825.71875 517.515625 824.800781 519.292969 C 822.902344 522.960938 825.171875 527.613281 831.378906 532.789062 C 832.5625 533.773438 833.484375 534.148438 834.710938 534.148438 C 836.152344 534.148438 836.722656 534.480469 838.53125 536.367188 C 841.15625 539.105469 843.210938 539.757812 847.96875 539.367188 C 852.085938 539.027344 852.695312 539.335938 852.332031 541.570312 C 851.875 544.386719 851.429688 544.628906 847.085938 544.390625 C 844.738281 544.261719 842.71875 543.890625 841.894531 543.441406 C 841.152344 543.035156 840.363281 542.703125 840.136719 542.703125 C 839.914062 542.699219 839.105469 542.222656 838.339844 541.640625 C 836.542969 540.273438 834.25 539.097656 833.386719 539.097656 C 832.324219 539.097656 830.871094 540.941406 830.871094 542.28125 C 830.871094 543.957031 835.617188 550.636719 837.691406 551.882812 C 840.039062 553.292969 849.320312 561.660156 849.320312 562.363281 C 849.320312 562.503906 849.976562 563.378906 850.78125 564.308594 C 853.445312 567.394531 856.851562 572.707031 858.792969 576.804688 C 861.03125 581.519531 861.269531 583.75 860.480469 592.613281 L 860.34375 594.15625 L 868.894531 598.496094 C 877.808594 603.019531 878.566406 603.445312 882.902344 606.335938 C 885.722656 608.21875 895.207031 617.519531 895.234375 618.429688 C 895.242188 618.726562 895.640625 619.78125 896.117188 620.773438 C 896.722656 622.023438 896.988281 623.53125 896.988281 625.722656 C 896.988281 628.417969 896.8125 629.125 895.765625 630.632812 Z M 892.128906 623.945312 C 888.585938 618.640625 878.175781 610.035156 868.785156 604.644531 C 861.71875 600.589844 860.121094 599.980469 860.121094 601.355469 C 860.121094 603.730469 875.761719 620.472656 882.269531 625.066406 C 886.65625 628.160156 889.464844 629.546875 891.355469 629.546875 C 894.113281 629.546875 894.414062 627.367188 892.128906 623.945312 Z M 855.660156 580.367188 C 851.992188 572.414062 844.90625 564.261719 838.070312 560.128906 C 833.828125 557.566406 831.199219 556.546875 829.4375 556.78125 C 827.117188 557.09375 825.464844 558.21875 825.488281 559.472656 C 825.515625 560.929688 827.535156 564.226562 830.851562 568.222656 C 832.449219 570.148438 834 572.027344 834.300781 572.398438 C 836.59375 575.21875 852.609375 590.921875 853.566406 591.289062 C 855.371094 591.972656 856.863281 591.847656 857.410156 590.960938 C 858.34375 589.449219 857.5 584.363281 855.660156 580.367188 Z M 896.121094 381.046875 C 893.890625 384.699219 890.671875 385.078125 885.121094 382.335938 C 878.90625 379.265625 870.6875 371.046875 858.476562 355.699219 C 852.75 348.503906 851.746094 347.453125 849.757812 346.585938 C 848.523438 346.046875 847.214844 345.605469 846.851562 345.605469 C 846.171875 345.605469 843.128906 344.339844 840.230469 342.859375 C 838.429688 341.933594 836.925781 341.757812 836.515625 342.421875 C 836.371094 342.652344 837.296875 343.714844 838.574219 344.785156 C 847.894531 352.605469 852.300781 356.863281 856.589844 362.191406 C 861.1875 367.910156 862.242188 371.332031 859.886719 372.875 C 858.070312 374.066406 855.664062 373.425781 848.246094 369.785156 C 838.730469 365.113281 834.097656 363.808594 828.960938 364.355469 C 824.585938 364.820312 824.15625 366.789062 827.390625 371.570312 C 829.863281 375.226562 837.738281 383.136719 841.277344 385.523438 C 857.339844 396.335938 858.375 396.890625 859.671875 395.328125 C 860.917969 393.824219 862.644531 394.507812 865.953125 397.820312 C 867.695312 399.558594 869.121094 401.195312 869.121094 401.457031 C 869.121094 401.71875 869.753906 402.8125 870.527344 403.886719 C 871.585938 405.363281 871.859375 406.128906 871.640625 407 C 871.1875 408.804688 869.652344 408.441406 866.050781 405.679688 C 862.664062 403.082031 861.742188 402.738281 861.292969 403.914062 C 861.144531 404.304688 861.019531 407.707031 861.019531 411.472656 C 861.019531 418.644531 860.828125 419.410156 859.015625 419.394531 C 858.046875 419.386719 854.675781 417.382812 853.144531 415.90625 C 852.648438 415.429688 850.320312 413.714844 847.96875 412.09375 C 840.148438 406.714844 833.21875 403.652344 828.847656 403.652344 C 823.550781 403.652344 824.28125 406.835938 831.421875 414.902344 C 837.265625 421.507812 838.648438 422.804688 842.273438 425.070312 C 850.695312 430.339844 852.492188 431.667969 855.238281 434.632812 C 856.835938 436.359375 858.816406 439.09375 859.636719 440.707031 C 860.988281 443.375 861.109375 443.929688 860.945312 446.808594 C 860.789062 449.558594 860.597656 450.148438 859.460938 451.335938 C 858.445312 452.394531 857.761719 452.703125 856.421875 452.703125 C 853.914062 452.703125 853.660156 451.582031 855.769531 449.8125 C 856.675781 449.050781 857.421875 448.042969 857.421875 447.578125 C 857.421875 446.316406 855.015625 442.636719 852.703125 440.359375 C 849.253906 436.957031 841.660156 431.550781 840.335938 431.550781 C 840.015625 431.550781 839.019531 431.097656 838.125 430.539062 C 836.683594 429.644531 835.902344 429.527344 831.394531 429.527344 C 826.363281 429.527344 826.277344 429.542969 825.207031 430.789062 C 822.828125 433.554688 824.210938 437.757812 829.214844 442.957031 C 832.5 446.371094 832.546875 446.402344 834.835938 446.402344 C 836.941406 446.402344 837.207031 446.519531 837.835938 447.734375 C 838.214844 448.46875 839.484375 449.632812 840.660156 450.320312 C 842.628906 451.480469 843.160156 451.578125 847.519531 451.578125 L 852.246094 451.578125 L 852.203125 453.558594 C 852.140625 456.34375 851.28125 456.882812 847.296875 456.632812 C 843.816406 456.417969 840.519531 455.207031 836.953125 452.839844 C 834.371094 451.128906 833.042969 450.976562 831.769531 452.25 C 829.785156 454.238281 831.289062 457.40625 836.96875 463.195312 C 841.886719 468.207031 843.390625 469.257812 847.746094 470.691406 C 849.476562 471.265625 851.285156 471.925781 851.757812 472.167969 C 852.234375 472.40625 854.546875 472.996094 856.898438 473.476562 C 862.796875 474.683594 862.820312 474.699219 862.820312 477.847656 C 862.820312 482.601562 860.507812 483.160156 854.335938 479.886719 C 852.195312 478.75 850.128906 477.539062 849.742188 477.191406 C 849.351562 476.84375 848.386719 476.433594 847.59375 476.273438 C 846.800781 476.113281 846.042969 475.808594 845.910156 475.59375 C 845.574219 475.050781 843.921875 475.097656 843.921875 475.652344 C 843.921875 475.898438 844.089844 476.101562 844.296875 476.101562 C 844.507812 476.101562 845.570312 476.9375 846.660156 477.957031 C 852.867188 483.765625 854.757812 485.773438 855.023438 486.839844 C 855.1875 487.492188 855.734375 488.59375 856.246094 489.285156 C 857.007812 490.320312 857.203125 491.375 857.339844 495.136719 C 857.5 499.660156 857.484375 499.75 856.121094 501.621094 C 854.042969 504.46875 852.773438 505.125 849.339844 505.121094 C 846.855469 505.121094 845.863281 504.855469 842.984375 503.445312 C 837.300781 500.652344 829.492188 491.984375 826.089844 484.6875 C 822.746094 477.515625 822.148438 475.472656 821.972656 470.621094 C 821.875 467.996094 821.601562 466.089844 821.28125 465.824219 C 819.730469 464.546875 800.777344 458.457031 798.023438 458.351562 C 795.578125 458.257812 788.019531 456.074219 784.988281 454.589844 C 782.222656 453.234375 779.847656 448.40625 780.945312 446.359375 C 781.371094 445.5625 781.707031 445.464844 783.097656 445.722656 C 784.003906 445.890625 785.457031 446.402344 786.320312 446.855469 C 788.816406 448.164062 793.128906 450 793.710938 450 C 794.003906 450 794.46875 450.230469 794.75 450.511719 C 795.03125 450.789062 796.234375 451.367188 797.425781 451.792969 C 798.621094 452.222656 802.230469 453.625 805.445312 454.914062 C 811.308594 457.265625 812.136719 457.585938 817.144531 459.433594 C 818.632812 459.984375 820.984375 460.917969 822.378906 461.515625 C 823.769531 462.113281 825.160156 462.601562 825.46875 462.601562 C 825.78125 462.601562 827.601562 463.308594 829.519531 464.175781 C 835.242188 466.761719 836.207031 466.125 832.425781 462.269531 C 829.890625 459.683594 827.714844 455.820312 827.726562 453.925781 C 827.730469 453.375 828.234375 452.046875 828.851562 450.96875 C 829.46875 449.890625 829.972656 448.753906 829.972656 448.4375 C 829.972656 448.121094 828.660156 446.539062 827.058594 444.921875 C 823.328125 441.15625 821.871094 438.039062 821.871094 433.835938 C 821.871094 431.292969 822.070312 430.519531 823.15625 428.828125 C 825.488281 425.203125 827.925781 423.902344 832.386719 423.902344 C 833.941406 423.902344 834.46875 423.730469 834.46875 423.226562 C 834.46875 422.851562 832.824219 420.777344 830.808594 418.613281 C 827.351562 414.898438 823.671875 410.3125 823.671875 409.722656 C 823.671875 409.574219 823.246094 408.515625 822.722656 407.375 C 821.347656 404.355469 821.648438 400.128906 823.367188 398.335938 C 826.277344 395.296875 833.367188 395.753906 838.96875 399.335938 C 844.078125 402.601562 845.777344 403.808594 846.292969 404.527344 C 846.597656 404.957031 848.355469 406.46875 850.203125 407.890625 C 853.042969 410.082031 853.761719 410.4375 854.882812 410.210938 C 856.75 409.839844 857.359375 409.207031 857.65625 407.320312 C 857.800781 406.417969 858.101562 404.859375 858.328125 403.859375 C 858.894531 401.34375 858.484375 400.226562 856.582031 399.074219 C 855.679688 398.53125 852.957031 396.65625 850.523438 394.90625 C 848.09375 393.160156 844.828125 390.917969 843.265625 389.929688 C 837.5625 386.316406 836.515625 385.480469 831.070312 380.175781 C 826.15625 375.390625 825.316406 374.34375 823.644531 370.921875 C 821.878906 367.3125 821.773438 366.875 821.992188 364.175781 C 822.253906 360.878906 823.230469 359.46875 825.839844 358.605469 C 828.125 357.851562 836.816406 358.320312 838.277344 359.273438 C 838.886719 359.675781 839.613281 360.003906 839.886719 360.003906 C 840.15625 360.003906 843.078125 361.320312 846.378906 362.929688 C 849.675781 364.539062 852.574219 365.855469 852.816406 365.855469 C 853.0625 365.855469 853.503906 365.5625 853.800781 365.203125 C 854.679688 364.144531 852.457031 360.953125 847.707031 356.460938 C 843.824219 352.785156 840.21875 349.910156 830.566406 342.78125 C 825.339844 338.921875 823.953125 337.523438 822.796875 334.949219 C 821.042969 331.050781 821.8125 330.546875 826.597656 332.453125 C 829.722656 333.703125 831.628906 334.355469 834.246094 335.074219 C 835.484375 335.414062 836.902344 335.894531 837.394531 336.136719 C 837.890625 336.382812 839.207031 336.902344 840.320312 337.292969 C 841.433594 337.683594 843.441406 338.398438 844.78125 338.878906 C 846.121094 339.363281 847.320312 339.65625 847.445312 339.53125 C 847.910156 339.066406 846.464844 337.113281 844.882812 336.058594 C 838.808594 332.023438 836.722656 330.316406 831.207031 324.867188 C 827.804688 321.5 825.019531 318.433594 825.019531 318.050781 C 825.019531 317.667969 824.71875 317.234375 824.347656 317.09375 C 823.976562 316.949219 823.671875 316.515625 823.671875 316.125 C 823.671875 315.738281 823.265625 314.625 822.769531 313.65625 C 821.707031 311.570312 821.597656 308.292969 822.53125 306.488281 C 822.890625 305.785156 823.835938 304.667969 824.628906 304.003906 C 825.964844 302.878906 826.308594 302.804688 829.480469 302.957031 C 831.359375 303.046875 833.851562 303.40625 835.019531 303.753906 C 836.1875 304.101562 837.269531 304.257812 837.421875 304.105469 C 837.578125 303.949219 835.53125 301.730469 832.878906 299.175781 C 825.226562 291.804688 821.878906 286.367188 821.871094 281.296875 C 821.871094 279.398438 822.117188 278.546875 822.988281 277.398438 C 824.375 275.582031 827.785156 274.332031 830.277344 274.726562 C 832.691406 275.105469 836.816406 276.394531 837.621094 277.015625 C 837.992188 277.304688 839.003906 277.871094 839.871094 278.273438 C 840.738281 278.679688 843.28125 280.578125 845.523438 282.496094 C 852.59375 288.542969 855.007812 289.710938 856.773438 287.945312 C 857.570312 287.148438 858.796875 280.511719 858.363281 279.339844 C 858.195312 278.882812 856.917969 277.761719 855.527344 276.84375 C 844.289062 269.453125 836.933594 264.285156 834.371094 261.984375 C 825.917969 254.390625 821.871094 248.234375 821.871094 242.960938 C 821.871094 240.921875 822.125 239.78125 822.828125 238.644531 C 824.128906 236.535156 827.6875 235.003906 832.148438 234.636719 C 836.234375 234.300781 843.652344 235.117188 844.980469 236.050781 C 846.132812 236.855469 847.703125 236.902344 848.324219 236.144531 C 848.578125 235.835938 849.105469 233.457031 849.496094 230.859375 C 849.890625 228.257812 850.34375 225.367188 850.503906 224.429688 C 850.832031 222.507812 850.71875 222.382812 843.636719 216.546875 C 832.746094 207.574219 824.59375 199.425781 819.90625 192.832031 C 816.015625 187.355469 813.339844 179.785156 813.328125 174.191406 C 813.316406 169.140625 815.988281 162.941406 819.199219 160.566406 C 821.042969 159.203125 825.230469 157.972656 826.691406 158.363281 C 827.34375 158.539062 828.09375 159.03125 828.363281 159.457031 C 829.027344 160.527344 828.042969 161.09375 825.5 161.101562 C 823.707031 161.109375 823.292969 161.332031 821.398438 163.296875 C 818.742188 166.050781 818.019531 168.632812 818.4375 173.890625 C 818.84375 179.019531 820.726562 185.039062 822.886719 188.097656 C 823.316406 188.707031 823.671875 189.378906 823.671875 189.585938 C 823.671875 191.808594 847.1875 215.964844 849.753906 216.375 C 850.878906 216.554688 850.910156 216.40625 851.773438 206.109375 C 852.730469 194.71875 852.679688 190.761719 851.539062 186.945312 C 850 181.8125 849.28125 180.519531 846.558594 178 C 843.710938 175.359375 841.34375 174.539062 837.734375 174.941406 C 835.4375 175.195312 835.132812 174.316406 837.007812 172.84375 C 838.003906 172.058594 838.828125 171.910156 842.164062 171.910156 C 847.988281 171.910156 850.839844 173.0625 854.585938 176.941406 C 854.992188 177.359375 855.828125 178.878906 856.449219 180.316406 C 857.535156 182.835938 857.578125 183.277344 857.542969 191.996094 C 857.511719 199.179688 857.367188 201.28125 856.835938 202.121094 C 856.472656 202.707031 856.039062 204.4375 855.875 205.96875 C 855.714844 207.5 855.183594 210.796875 854.699219 213.296875 C 854.214844 215.796875 853.820312 218.542969 853.820312 219.398438 C 853.820312 221.03125 853.875 221.101562 857.644531 224.160156 C 858.882812 225.164062 860.703125 226.664062 861.695312 227.496094 C 863.488281 229 870.226562 234.40625 873.109375 236.652344 C 873.941406 237.300781 876.910156 239.65625 879.707031 241.882812 C 882.503906 244.109375 886.136719 246.945312 887.777344 248.183594 C 894.707031 253.402344 895.089844 253.765625 896.058594 256.019531 C 897.433594 259.214844 897.285156 261.910156 895.734375 261.90625 C 895.328125 261.90625 894.285156 261.460938 893.417969 260.921875 C 891 259.414062 884.972656 256.199219 881.71875 254.679688 C 880.109375 253.925781 878.085938 252.9375 877.21875 252.476562 C 876.351562 252.015625 873.921875 250.988281 871.820312 250.195312 C 869.714844 249.398438 867.386719 248.46875 866.644531 248.128906 C 865.308594 247.519531 863.105469 246.84375 857.40625 245.292969 C 855.789062 244.851562 854.03125 244.261719 853.496094 243.976562 C 852.964844 243.691406 852.097656 243.457031 851.570312 243.457031 C 850.644531 243.457031 850.617188 243.609375 850.796875 247.84375 C 851.003906 252.753906 852.105469 256.378906 853.816406 257.761719 C 854.410156 258.246094 854.722656 258.835938 854.539062 259.132812 C 853.957031 260.078125 852.21875 259.699219 851.273438 258.417969 C 849.265625 255.703125 848.792969 254.195312 848.582031 249.816406 C 848.269531 243.296875 848.101562 242.585938 846.757812 242.074219 C 846.117188 241.832031 843.953125 241.4375 841.945312 241.199219 C 839.9375 240.957031 836.902344 240.546875 835.203125 240.285156 C 831.042969 239.640625 826.484375 240.3125 825.316406 241.742188 C 822.453125 245.253906 831.003906 257.132812 841.292969 263.941406 C 843.683594 265.523438 845.757812 267.003906 845.898438 267.230469 C 846.414062 268.066406 856.378906 274.050781 857.691406 274.3125 C 858.636719 274.503906 859.226562 274.367188 859.636719 273.871094 C 861 272.230469 863.589844 273.402344 866.71875 277.074219 C 871.613281 282.816406 872.964844 286.273438 870.433594 286.566406 C 869.585938 286.664062 868.371094 286.007812 865.964844 284.144531 C 861.335938 280.570312 861.300781 280.613281 861.019531 289.804688 C 860.828125 296.074219 860.683594 297.203125 860.027344 297.617188 C 858.972656 298.28125 856.125 296.859375 851.828125 293.523438 C 847.085938 289.847656 844.796875 288.234375 843.246094 287.480469 C 842.503906 287.117188 841.492188 286.601562 840.996094 286.332031 C 834.878906 282.992188 829.359375 281.53125 826.707031 282.554688 C 824.757812 283.308594 825.144531 286.113281 827.621094 289.222656 C 829.902344 292.082031 835.585938 298.109375 837.496094 299.699219 C 845.570312 306.40625 854.09375 312.066406 855.378906 311.574219 C 855.765625 311.425781 856.207031 310.773438 856.359375 310.117188 C 857.335938 306.03125 861.019531 307.789062 861.019531 312.339844 C 861.019531 314.269531 861.167969 314.589844 862.371094 315.300781 C 863.113281 315.742188 863.71875 316.257812 863.71875 316.453125 C 863.71875 316.644531 864.21875 316.804688 864.828125 316.804688 C 865.4375 316.804688 866.296875 317.171875 866.738281 317.621094 C 867.183594 318.070312 869.15625 319.335938 871.125 320.433594 C 875.21875 322.71875 878.570312 325.679688 878.570312 327.011719 C 878.570312 327.511719 878.105469 328.609375 877.542969 329.449219 C 875.976562 331.78125 874.398438 331.710938 871.59375 329.1875 C 870.355469 328.074219 867.652344 326.003906 865.578125 324.59375 C 861.953125 322.117188 861.792969 322.058594 861.171875 322.902344 C 860.722656 323.519531 860.609375 324.445312 860.792969 326.027344 C 861.308594 330.46875 861.257812 334.292969 860.683594 334.871094 C 859.351562 336.207031 858.480469 333.484375 857.660156 325.449219 C 857.203125 320.980469 856.933594 319.796875 856.246094 319.277344 C 855.777344 318.921875 855.273438 318.628906 855.125 318.621094 C 854.980469 318.613281 854.390625 318.199219 853.820312 317.707031 C 853.25 317.210938 852.253906 316.804688 851.609375 316.804688 C 850.941406 316.804688 850.207031 316.433594 849.898438 315.945312 C 849.605469 315.472656 848.695312 314.941406 847.878906 314.769531 C 847.0625 314.59375 846.191406 314.289062 845.945312 314.09375 C 844.984375 313.324219 836.808594 309.988281 834.28125 309.332031 C 831.84375 308.699219 828.765625 308.738281 826.304688 309.429688 C 825.082031 309.773438 824.914062 311.667969 825.910156 313.859375 C 826.410156 314.957031 826.820312 316.070312 826.820312 316.332031 C 826.820312 316.589844 827.117188 316.804688 827.480469 316.804688 C 827.84375 316.804688 828.402344 317.292969 828.71875 317.894531 C 829.785156 319.90625 839.066406 329 841.394531 330.316406 C 842.660156 331.03125 845.859375 333.445312 848.5 335.683594 C 852.851562 339.371094 853.480469 339.753906 855.152344 339.753906 C 856.519531 339.753906 857.058594 339.957031 857.234375 340.542969 C 857.902344 342.777344 858.75 343.6875 861.53125 345.15625 C 863.171875 346.019531 865.90625 347.457031 867.605469 348.347656 C 871.933594 350.617188 878.945312 354.765625 880.820312 356.167969 C 881.6875 356.816406 883.710938 358.320312 885.320312 359.515625 C 887.789062 361.34375 890.625 364.152344 893.644531 367.753906 C 894 368.179688 894.90625 369.742188 895.65625 371.226562 C 897.359375 374.601562 897.554688 378.695312 896.121094 381.046875 Z M 893.15625 376.578125 C 892.066406 374.472656 887.503906 369.019531 884.9375 366.753906 C 878.101562 360.726562 873.023438 357.339844 863.175781 352.242188 C 861.144531 351.191406 860.429688 351.480469 861.046875 353.101562 C 861.652344 354.695312 868.078125 362.4375 873.570312 368.1875 C 879.90625 374.828125 888.257812 380.703125 891.355469 380.703125 C 891.996094 380.703125 892.765625 380.277344 893.167969 379.703125 C 894.039062 378.460938 894.039062 378.285156 893.15625 376.578125 Z M 879.808594 245.234375 C 879.25 244.988281 878.1875 244.332031 877.445312 243.78125 C 876.703125 243.230469 874.675781 241.78125 872.945312 240.5625 C 871.210938 239.339844 868.75 237.46875 867.472656 236.398438 C 866.195312 235.332031 865.023438 234.457031 864.863281 234.457031 C 864.414062 234.457031 856.941406 228.550781 855.328125 226.921875 C 852.742188 224.308594 852.269531 224.8125 851.835938 230.632812 C 851.707031 232.363281 851.46875 234.328125 851.3125 234.992188 C 850.949219 236.535156 852.753906 238.507812 854.53125 238.507812 C 855.90625 238.507812 871.25 243.628906 873.613281 244.878906 C 874.476562 245.335938 875.601562 245.707031 876.113281 245.707031 C 876.628906 245.707031 877.441406 246.003906 877.921875 246.367188 C 879.085938 247.25 880.820312 247.25 880.820312 246.371094 C 880.820312 245.996094 880.363281 245.484375 879.808594 245.234375 Z M 853.320312 490.132812 C 852.144531 487.78125 850.535156 485.847656 845.957031 481.273438 C 842.734375 478.054688 839.285156 474.980469 838.296875 474.445312 C 832.476562 471.277344 826.582031 468.449219 825.800781 468.449219 C 824.964844 468.449219 824.914062 468.667969 825.132812 471.398438 C 825.277344 473.1875 825.65625 474.660156 826.097656 475.144531 C 826.496094 475.585938 826.820312 476.238281 826.820312 476.597656 C 826.820312 477.390625 830.457031 483.324219 832.394531 485.691406 C 838.457031 493.101562 845.832031 498.40625 850.746094 498.894531 C 852.804688 499.101562 853.296875 498.992188 854.207031 498.128906 C 855.105469 497.277344 855.238281 496.804688 855.046875 495.128906 C 854.925781 494.035156 854.148438 491.785156 853.320312 490.132812 Z M 859.660156 638.382812 C 857.140625 641.941406 855.609375 641.40625 856.996094 637.453125 C 857.816406 635.125 857.867188 634.46875 857.4375 631.707031 C 856.988281 628.828125 856.007812 626.519531 852.695312 620.558594 C 850.390625 616.410156 843.730469 609.324219 840.414062 607.496094 C 839.742188 607.125 838.585938 606.394531 837.84375 605.875 C 836.328125 604.808594 830.753906 602.097656 830.074219 602.097656 C 829.832031 602.097656 828.699219 602.511719 827.554688 603.019531 C 826.136719 603.644531 825.472656 604.210938 825.472656 604.789062 C 825.472656 608.441406 831.53125 615.6875 847.476562 631.09375 L 852.570312 636.015625 L 852.292969 638.023438 C 851.8125 641.550781 850.519531 641.964844 847.058594 639.707031 C 842.332031 636.613281 836.457031 634.535156 831.449219 634.183594 C 828.515625 633.976562 827.53125 634.066406 826.667969 634.632812 C 825.433594 635.441406 824.921875 637.328125 825.515625 638.886719 C 826.65625 641.890625 837.207031 653.609375 841.023438 656.113281 C 842.46875 657.0625 843.191406 658.15625 842.792969 658.800781 C 842.203125 659.753906 840.957031 659.121094 836.824219 655.761719 C 827.550781 648.226562 821.871094 640.214844 821.871094 634.671875 C 821.871094 628.863281 827.132812 626.519531 835.785156 628.476562 C 837.5625 628.875 839.132812 629.085938 839.277344 628.941406 C 839.757812 628.457031 838.0625 626.390625 835.914062 624.835938 C 833.347656 622.984375 826.453125 615.246094 825.347656 612.980469 C 824.910156 612.082031 824.355469 611.152344 824.113281 610.90625 C 823.871094 610.664062 823.671875 608.90625 823.671875 606.996094 C 823.671875 603.617188 823.71875 603.46875 825.507812 601.207031 C 828.730469 597.128906 833.078125 596.105469 837.644531 598.355469 C 840.09375 599.558594 846.285156 604.289062 846.945312 605.453125 C 847.136719 605.792969 848.1875 607.019531 849.28125 608.183594 C 851.902344 610.976562 855.675781 616.414062 857.707031 620.320312 C 860.371094 625.445312 861.023438 627.839844 861 632.429688 C 860.980469 636.214844 860.882812 636.660156 859.660156 638.382812 Z M 772.972656 671.996094 C 772.808594 672.160156 771.386719 672.296875 769.8125 672.296875 C 767.183594 672.296875 766.914062 672.203125 766.527344 671.1875 C 766.269531 670.507812 766.085938 620.039062 766.050781 541.039062 L 765.996094 412.003906 L 764.949219 407.972656 C 764.035156 404.449219 763.683594 403.757812 762.175781 402.464844 C 761.226562 401.652344 760.3125 400.980469 760.144531 400.96875 C 759.667969 400.941406 757.074219 403.238281 757.074219 403.6875 C 757.074219 404.097656 753.882812 412.585938 752.765625 415.144531 C 752.4375 415.898438 751.96875 417.316406 751.722656 418.296875 C 751.476562 419.277344 750.949219 421.089844 750.554688 422.328125 C 749.003906 427.199219 748.0625 430.605469 747.140625 434.703125 C 746.609375 437.054688 745.898438 440.089844 745.5625 441.453125 C 745.226562 442.8125 744.445312 446.660156 743.828125 450 C 743.210938 453.34375 742.488281 457.191406 742.21875 458.550781 C 741.949219 459.914062 741.429688 463.152344 741.058594 465.75 C 740.691406 468.351562 740.09375 471.894531 739.730469 473.625 C 739.371094 475.359375 739.074219 477.457031 739.074219 478.285156 C 739.074219 479.117188 738.789062 480.9375 738.441406 482.335938 C 738.089844 483.734375 737.671875 486.292969 737.507812 488.027344 C 737.34375 489.757812 736.929688 492.289062 736.585938 493.652344 C 736.246094 495.011719 735.828125 497.542969 735.65625 499.273438 C 735.488281 501.007812 735.074219 502.972656 734.738281 503.640625 C 734.398438 504.308594 734.125 505.652344 734.125 506.628906 C 734.125 508.335938 733.210938 514 732.335938 517.726562 C 732.105469 518.714844 731.40625 521.753906 730.785156 524.472656 C 730.160156 527.195312 729.234375 531.246094 728.71875 533.472656 C 727.503906 538.75 721.429688 551.125 716.125 559.136719 C 710.417969 567.75 705.273438 573.214844 700.796875 575.417969 C 698.414062 576.589844 697.257812 576.875 694.621094 576.941406 C 691.496094 577.023438 691.273438 576.957031 688.660156 575.160156 C 686.167969 573.449219 685.710938 573.296875 683.035156 573.296875 C 680.820312 573.296875 680.125 573.449219 680.125 573.9375 C 680.125 574.289062 679.496094 574.714844 678.726562 574.882812 C 677.796875 575.085938 675.800781 576.679688 672.765625 579.636719 C 669.351562 582.964844 667.375 584.492188 664.925781 585.710938 C 660.652344 587.835938 658.90625 588.039062 655.046875 586.867188 C 651.472656 585.78125 650.085938 585.984375 646.78125 588.082031 C 644.582031 589.476562 641.515625 593.5625 639.832031 597.355469 C 638.730469 599.828125 637.269531 607.578125 636.433594 615.371094 C 636.140625 618.09375 635.753906 628.117188 635.570312 637.648438 C 635.246094 654.375 635.199219 655.082031 634.140625 658.160156 C 632.128906 664.027344 628.8125 668.234375 624.238281 670.722656 C 621.46875 672.234375 619.644531 672 616.558594 669.734375 C 611.160156 665.769531 609.140625 659.15625 611.085938 651.804688 C 611.476562 650.328125 611.960938 646.894531 612.164062 644.171875 C 612.5 639.585938 612.667969 638.957031 614.398438 635.621094 C 616.628906 631.335938 617.175781 630.46875 619.828125 627.070312 C 620.941406 625.640625 622.242188 623.941406 622.722656 623.296875 C 623.199219 622.648438 624.472656 621.070312 625.546875 619.785156 C 629.46875 615.101562 632.777344 609.449219 634.039062 605.285156 C 634.453125 603.925781 634.667969 600.949219 634.671875 596.554688 C 634.675781 590.140625 634.628906 589.804688 633.480469 587.84375 C 632.632812 586.398438 631.75 585.574219 630.4375 585.011719 C 628.121094 584.019531 627.855469 583.6875 626.34375 579.824219 C 625.667969 578.089844 624.632812 576.027344 624.042969 575.242188 C 623.457031 574.453125 622.976562 573.519531 622.976562 573.167969 C 622.976562 572.816406 621.109375 570.769531 618.824219 568.621094 C 615.558594 565.550781 613.800781 564.296875 610.609375 562.757812 C 605.730469 560.402344 602.945312 559.414062 599.351562 558.757812 C 597.867188 558.488281 596.503906 558.054688 596.320312 557.796875 C 596.140625 557.535156 595.988281 554.542969 595.984375 551.140625 C 595.972656 541.378906 594.054688 535.144531 589.628906 530.5 C 588.542969 529.359375 586.707031 527.765625 585.554688 526.964844 C 584.402344 526.160156 583.34375 525.070312 583.203125 524.539062 C 582.964844 523.652344 583.148438 522.902344 584.695312 518.398438 C 586.554688 512.984375 588.335938 503.28125 588.3125 498.683594 C 588.289062 494.710938 587.269531 489.136719 586.269531 487.519531 C 585.828125 486.808594 584.542969 485.253906 583.410156 484.070312 L 581.351562 481.914062 L 581.367188 469.667969 C 581.382812 456.789062 581.6875 454.113281 583.511719 450.796875 C 584.121094 449.683594 584.9375 448.953125 585.929688 448.625 C 587.636719 448.0625 588.777344 446.675781 588.777344 445.167969 C 588.777344 444.140625 591.421875 437.707031 593.082031 434.703125 C 594.46875 432.191406 599.59375 427.328125 602.285156 425.976562 C 603.640625 425.292969 605.824219 424.121094 607.132812 423.378906 L 609.515625 422.023438 L 609.210938 416.542969 C 608.9375 411.628906 609.035156 410.417969 610.140625 404.878906 C 610.816406 401.480469 611.253906 398.398438 611.113281 398.027344 C 610.703125 396.953125 609.53125 397.242188 608.683594 398.625 C 606.46875 402.230469 602.308594 404.042969 597.59375 403.453125 C 594.257812 403.035156 592.222656 401.613281 588.09375 396.828125 C 582.214844 390.007812 577.0625 387.320312 569.75 387.257812 C 565.90625 387.226562 565.398438 386.90625 565.386719 384.535156 C 565.375 382.835938 563.804688 378.90625 561.933594 375.902344 C 559.351562 371.753906 552.359375 367.222656 548.503906 367.199219 C 547.761719 367.195312 546.652344 366.9375 546.042969 366.628906 C 545.023438 366.113281 544.886719 365.660156 544.402344 361.304688 C 543.832031 356.164062 542.0625 350.777344 540.378906 349.054688 C 539.851562 348.519531 539.238281 347.746094 539.011719 347.335938 C 538.429688 346.277344 533.816406 342.90625 532.949219 342.90625 C 531.671875 342.90625 531.234375 341.074219 531.652344 337.46875 C 532.265625 332.175781 532.140625 325.613281 531.355469 321.847656 C 530.957031 319.941406 530.585938 318.085938 530.527344 317.730469 C 530.472656 317.371094 530.191406 317 529.902344 316.90625 C 529.613281 316.808594 529.378906 316.46875 529.378906 316.152344 C 529.378906 315.835938 527.785156 314.050781 525.835938 312.191406 C 523.886719 310.328125 522.15625 308.585938 521.988281 308.3125 C 521.820312 308.042969 522.03125 305.695312 522.453125 303.101562 C 523.078125 299.257812 523.132812 297.757812 522.742188 294.980469 C 522.3125 291.921875 522.054688 291.324219 520.199219 289.066406 C 519.058594 287.683594 518.128906 286.40625 518.128906 286.226562 C 518.128906 286.046875 517.320312 285.65625 516.332031 285.359375 C 514.117188 284.695312 513.851562 283.867188 514.261719 278.835938 C 514.585938 274.832031 514.046875 271.277344 512.722656 268.65625 C 511.839844 266.917969 507.417969 262.640625 505.03125 261.226562 C 503.578125 260.363281 503.492188 260.167969 503.261719 257.175781 C 502.863281 251.996094 500.488281 247.988281 494.082031 241.671875 C 490.019531 237.667969 486.628906 232.652344 486.628906 230.644531 C 486.628906 228.285156 485.164062 222.925781 483.855469 220.507812 C 482.359375 217.742188 476.417969 211.789062 472.101562 208.730469 C 464.210938 203.144531 458.296875 195.335938 458.285156 190.492188 C 458.28125 188.800781 458.492188 188.425781 460.324219 186.894531 C 462.726562 184.886719 464.09375 184.34375 470.429688 182.886719 C 473.027344 182.289062 476.574219 181.402344 478.304688 180.914062 C 487.105469 178.441406 491.605469 177.339844 494.027344 177.070312 C 495.496094 176.90625 497.214844 176.574219 497.851562 176.335938 C 498.484375 176.09375 500.671875 175.703125 502.710938 175.472656 C 504.75 175.242188 507.578125 174.75 508.992188 174.378906 C 510.410156 174.011719 512.792969 173.707031 514.285156 173.703125 C 515.78125 173.699219 518.21875 173.378906 519.703125 172.992188 C 523.1875 172.085938 545.574219 171.625 553.679688 172.296875 C 565.398438 173.265625 570.199219 173.777344 573.253906 174.390625 C 574.984375 174.738281 577.617188 175.15625 579.101562 175.320312 C 580.585938 175.484375 582.6875 175.914062 583.765625 176.273438 C 584.847656 176.636719 586.667969 177.097656 587.816406 177.300781 C 590.972656 177.863281 598.039062 179.789062 601.828125 181.121094 C 603.683594 181.777344 605.886719 182.484375 606.71875 182.699219 C 607.554688 182.914062 608.457031 183.308594 608.722656 183.574219 C 608.988281 183.839844 609.589844 184.058594 610.0625 184.058594 C 610.53125 184.058594 611.554688 184.347656 612.332031 184.699219 C 616.589844 186.621094 620.273438 188.109375 620.800781 188.117188 C 621.132812 188.125 621.90625 188.523438 622.527344 189.007812 C 623.144531 189.492188 623.976562 189.894531 624.375 189.898438 C 625.378906 189.914062 643.109375 198.890625 646.160156 200.933594 C 647.785156 202.019531 648.566406 202.5 651.777344 204.375 C 654.5 205.964844 660.167969 209.773438 665.050781 213.292969 C 666.78125 214.539062 668.707031 215.910156 669.324219 216.335938 C 669.945312 216.761719 672.136719 218.53125 674.199219 220.269531 C 676.261719 222.011719 678.441406 223.738281 679.039062 224.109375 C 679.632812 224.480469 680.125 225.035156 680.125 225.34375 C 680.125 225.65625 680.34375 225.90625 680.609375 225.90625 C 682.351562 225.90625 703.011719 246.011719 713.703125 258.113281 C 715.21875 259.828125 717.230469 262.042969 718.171875 263.03125 C 719.113281 264.023438 720.765625 266.046875 721.847656 267.53125 C 724.242188 270.828125 725.441406 272.402344 726.964844 274.230469 C 727.605469 275 729.941406 278.0625 732.160156 281.03125 C 734.378906 284 737.132812 287.660156 738.277344 289.15625 C 740.613281 292.222656 753.199219 311.457031 754.867188 314.511719 C 755.460938 315.601562 756.300781 316.867188 756.734375 317.324219 C 757.167969 317.78125 757.523438 318.390625 757.523438 318.675781 C 757.523438 318.960938 758.054688 319.894531 758.707031 320.746094 C 759.355469 321.597656 760.148438 323.167969 760.46875 324.230469 C 760.789062 325.292969 761.371094 326.78125 761.761719 327.535156 C 762.152344 328.292969 762.472656 329.308594 762.472656 329.792969 C 762.472656 330.9375 765.132812 333.222656 765.746094 332.609375 C 766.039062 332.320312 766.078125 327.070312 765.867188 317.621094 C 765.6875 309.625 765.5625 302.066406 765.59375 300.832031 C 765.625 299.59375 765.753906 263.347656 765.878906 220.289062 C 766.003906 177.226562 766.273438 141.828125 766.476562 141.625 C 766.882812 141.222656 771.796875 140.894531 772.710938 141.210938 C 773.160156 141.367188 773.273438 194.839844 773.273438 406.550781 C 773.273438 552.378906 773.136719 671.832031 772.972656 671.996094 Z M 762.246094 381.066406 C 761.753906 381.140625 761.042969 381.554688 760.671875 381.980469 C 760.300781 382.40625 758.792969 383.613281 757.324219 384.664062 C 751.421875 388.878906 740.128906 400.996094 735.472656 408.113281 C 734.855469 409.058594 733.695312 410.71875 732.898438 411.804688 C 729.027344 417.074219 724.34375 424.34375 723.144531 426.945312 C 722.769531 427.75 721.796875 429.472656 720.976562 430.769531 C 718.324219 434.972656 719.003906 433.707031 712.167969 447.117188 C 710.136719 451.101562 708.472656 454.671875 708.472656 455.050781 C 708.472656 455.429688 708.171875 455.992188 707.800781 456.300781 C 707.429688 456.609375 707.125 457.363281 707.125 457.980469 C 707.125 458.59375 706.617188 459.699219 706 460.433594 C 705.378906 461.167969 704.875 462.070312 704.875 462.433594 C 704.875 463.0625 704.484375 464.019531 701.972656 469.574219 C 701.414062 470.8125 699.902344 474.558594 698.609375 477.902344 C 697.316406 481.242188 695.886719 484.785156 695.429688 485.777344 C 694.976562 486.765625 694.210938 488.789062 693.734375 490.277344 C 690.789062 499.414062 689.882812 502.121094 689.359375 503.324219 C 689.035156 504.066406 687.914062 507.410156 686.871094 510.75 C 685.824219 514.089844 684.789062 517.175781 684.570312 517.605469 C 684.351562 518.035156 684.175781 518.691406 684.175781 519.066406 C 684.175781 519.441406 683.777344 520.910156 683.292969 522.335938 C 682.808594 523.757812 682.175781 526.34375 681.882812 528.074219 C 681.59375 529.808594 681.078125 531.386719 680.742188 531.585938 C 680.28125 531.851562 680.125 533.164062 680.125 536.78125 C 680.125 539.695312 679.929688 541.816406 679.628906 542.113281 C 679.3125 542.429688 679.242188 543.550781 679.425781 545.242188 C 679.585938 546.6875 679.824219 549.796875 679.953125 552.148438 C 680.144531 555.585938 680.359375 556.578125 681.058594 557.226562 C 681.535156 557.671875 681.925781 558.328125 681.925781 558.691406 C 681.925781 559.8125 685.054688 562.871094 686.792969 563.445312 C 687.703125 563.75 689.5625 563.988281 690.925781 563.980469 C 693.792969 563.964844 695.992188 562.867188 699.96875 559.472656 C 702.519531 557.296875 708.558594 549.652344 708.867188 548.210938 C 708.957031 547.78125 709.414062 546.945312 709.878906 546.351562 C 710.34375 545.761719 710.722656 544.9375 710.722656 544.519531 C 710.722656 544.101562 711.230469 542.066406 711.847656 540 C 712.46875 537.933594 712.972656 535.75 712.972656 535.152344 C 712.972656 534.550781 713.253906 533.421875 713.597656 532.640625 C 713.941406 531.863281 714.863281 528.59375 715.652344 525.375 C 717.324219 518.5625 717.761719 516.890625 718.835938 513.226562 C 720.25 508.402344 720.992188 505.605469 721.289062 504 C 721.445312 503.132812 721.953125 501.210938 722.410156 499.726562 C 722.867188 498.242188 723.46875 496.113281 723.75 495 C 724.03125 493.886719 724.566406 491.964844 724.941406 490.726562 C 725.3125 489.488281 726.113281 486.550781 726.722656 484.199219 C 727.960938 479.398438 728.894531 476.074219 729.566406 474.074219 C 730.34375 471.761719 732.378906 464.703125 732.746094 463.050781 C 732.941406 462.183594 733.304688 460.96875 733.558594 460.351562 C 733.8125 459.734375 734.464844 457.707031 735.011719 455.851562 C 736.808594 449.753906 741.929688 434.183594 743.597656 429.753906 C 744.109375 428.390625 745.203125 425.253906 746.023438 422.777344 C 746.84375 420.300781 747.769531 417.671875 748.074219 416.925781 C 748.382812 416.183594 748.800781 415.171875 749.003906 414.675781 C 749.203125 414.183594 749.964844 412.359375 750.695312 410.628906 C 751.425781 408.894531 752.78125 405.554688 753.714844 403.203125 C 754.644531 400.851562 755.660156 398.523438 755.96875 398.027344 C 756.28125 397.53125 757.597656 394.710938 758.894531 391.761719 C 760.195312 388.808594 761.742188 385.679688 762.335938 384.804688 C 763.648438 382.871094 763.601562 380.859375 762.246094 381.066406 Z M 744.914062 369.238281 C 736.207031 369.25 732.421875 369.433594 729.171875 370.007812 C 726.824219 370.425781 723.683594 370.976562 722.199219 371.238281 C 715.835938 372.351562 713.507812 372.914062 705.097656 375.355469 C 703.367188 375.859375 701.039062 376.574219 699.925781 376.941406 C 698.8125 377.3125 697.226562 377.785156 696.402344 377.992188 C 695.582031 378.203125 694.570312 378.667969 694.152344 379.03125 C 693.738281 379.390625 692.894531 379.792969 692.273438 379.925781 C 691.65625 380.058594 689.53125 380.8125 687.550781 381.601562 C 685.570312 382.386719 683.148438 383.289062 682.171875 383.597656 C 681.195312 383.910156 680.320312 384.398438 680.222656 384.683594 C 680.128906 384.96875 679.78125 385.203125 679.457031 385.203125 C 679.128906 385.203125 677.675781 385.871094 676.230469 386.683594 C 674.785156 387.496094 672.890625 388.445312 672.023438 388.785156 C 671.160156 389.128906 669.914062 389.78125 669.253906 390.230469 C 668.597656 390.683594 667.769531 391.054688 667.414062 391.054688 C 667.054688 391.054688 666.382812 391.476562 665.917969 391.992188 C 665.449219 392.503906 664.457031 393.207031 663.710938 393.550781 C 661 394.789062 650.785156 400.917969 647.855469 403.0625 C 645.425781 404.839844 642.730469 406.722656 639.082031 409.191406 C 637.054688 410.5625 633.003906 413.671875 628.152344 417.574219 C 626.914062 418.570312 625.140625 419.898438 624.214844 420.523438 C 623.285156 421.152344 622.527344 421.898438 622.527344 422.183594 C 622.527344 422.472656 622.179688 423.089844 621.753906 423.558594 C 617.785156 427.945312 614.160156 438.066406 614.277344 444.4375 C 614.351562 448.363281 615.855469 454.382812 617.359375 456.765625 C 617.972656 457.738281 618.476562 458.683594 618.476562 458.867188 C 618.476562 459.398438 624.023438 464.851562 624.5625 464.851562 C 624.832031 464.851562 625.722656 465.347656 626.542969 465.953125 C 628.179688 467.160156 634.792969 468.902344 637.738281 468.902344 C 640.425781 468.902344 645.390625 467.757812 647.957031 466.550781 C 652.191406 464.558594 653.582031 463.347656 656.371094 459.226562 C 662.242188 450.550781 672.808594 436.898438 677.601562 431.789062 C 678.988281 430.308594 680.125 428.945312 680.125 428.761719 C 680.125 427.875 693.253906 414.550781 699.816406 408.773438 C 702.226562 406.652344 705.101562 404.082031 706.207031 403.066406 C 707.921875 401.484375 713.226562 397.390625 719.859375 392.53125 C 720.800781 391.84375 722.21875 390.773438 723.011719 390.152344 C 723.800781 389.535156 725.15625 388.640625 726.023438 388.164062 C 726.890625 387.691406 728.914062 386.457031 730.523438 385.425781 C 733.652344 383.417969 739.015625 380.253906 739.285156 380.253906 C 739.375 380.253906 741.441406 379.082031 743.875 377.648438 C 748.183594 375.113281 753.980469 372.152344 754.648438 372.152344 C 755.34375 372.152344 756.648438 370.601562 756.519531 369.929688 C 756.398438 369.316406 754.957031 369.230469 744.914062 369.238281 Z M 753.882812 346.046875 C 753.121094 344.511719 752.226562 342.515625 751.894531 341.613281 C 750.855469 338.792969 748.140625 332.503906 747.726562 331.957031 C 747.507812 331.667969 746.957031 330.417969 746.5 329.179688 C 745.304688 325.921875 740.910156 317.054688 740.402344 316.878906 C 740.167969 316.796875 739.972656 316.441406 739.972656 316.089844 C 739.972656 315.238281 735.082031 305.863281 732.132812 301.054688 C 730.839844 298.953125 728.617188 295.308594 727.191406 292.957031 C 724.273438 288.144531 720.921875 283.207031 717.921875 279.292969 C 716.808594 277.839844 715.59375 276.210938 715.222656 275.675781 C 708.585938 266.050781 686.335938 243.285156 681.457031 241.128906 C 680.722656 240.804688 680.125 240.316406 680.125 240.042969 C 680.125 239.773438 679.667969 239.316406 679.113281 239.027344 C 678.554688 238.738281 676.785156 237.492188 675.175781 236.257812 C 673.566406 235.027344 671.84375 233.824219 671.351562 233.585938 C 670.855469 233.347656 669.4375 232.429688 668.199219 231.542969 C 665.417969 229.554688 664.875 229.199219 661.226562 227.011719 C 657.9375 225.042969 645.464844 218.71875 644.855469 218.710938 C 644.46875 218.707031 640.644531 217.148438 637.152344 215.566406 C 636.160156 215.121094 633.730469 214.230469 631.75 213.589844 C 625.269531 211.496094 623.667969 210.933594 622.457031 210.316406 C 621.800781 209.980469 620.773438 209.707031 620.171875 209.707031 C 619.574219 209.707031 617.394531 209.203125 615.328125 208.582031 C 608.628906 206.578125 598.835938 207.125 593.277344 209.8125 C 589.351562 211.710938 584.507812 215.847656 581.90625 219.523438 C 578.222656 224.730469 576.484375 229.214844 575.234375 236.707031 C 574.238281 242.695312 574.292969 245.351562 575.542969 251.953125 C 577.601562 262.8125 581.839844 269.390625 591.21875 276.273438 C 594.351562 278.570312 596.195312 279.554688 599.128906 280.5 C 603.679688 281.96875 608.621094 283.039062 610.898438 283.046875 C 611.804688 283.054688 613.832031 283.457031 615.398438 283.949219 C 616.96875 284.441406 619.066406 284.847656 620.0625 284.851562 C 621.0625 284.855469 622.277344 285.132812 622.765625 285.464844 C 623.25 285.800781 624.765625 286.207031 626.125 286.371094 C 627.488281 286.53125 630.121094 287.046875 631.976562 287.519531 C 633.832031 287.988281 637.273438 288.820312 639.625 289.363281 C 643.515625 290.265625 647.011719 291.277344 650.652344 292.546875 C 651.394531 292.804688 653.925781 293.5 656.277344 294.085938 C 661.257812 295.335938 666.082031 296.992188 674.496094 300.34375 C 676.722656 301.230469 678.898438 301.957031 679.335938 301.957031 C 679.769531 301.957031 680.125 302.160156 680.125 302.40625 C 680.125 302.652344 680.605469 302.855469 681.195312 302.855469 C 681.78125 302.855469 682.507812 303.148438 682.800781 303.5 C 683.09375 303.855469 683.957031 304.285156 684.714844 304.449219 C 685.472656 304.617188 690.671875 307.035156 696.269531 309.820312 C 701.867188 312.609375 706.90625 315.03125 707.460938 315.203125 C 708.019531 315.375 708.472656 315.804688 708.472656 316.160156 C 708.472656 316.535156 708.910156 316.804688 709.519531 316.804688 C 710.09375 316.804688 711.242188 317.414062 712.074219 318.15625 C 712.90625 318.898438 713.757812 319.503906 713.964844 319.503906 C 714.34375 319.503906 723.871094 325.59375 726.023438 327.210938 C 726.640625 327.675781 728.363281 328.902344 729.847656 329.9375 C 736.5625 334.617188 742.53125 339.59375 749.507812 346.332031 C 753.199219 349.894531 755.273438 351.027344 755.273438 349.476562 C 755.273438 349.128906 754.648438 347.585938 753.882812 346.050781 Z M 753.671875 377.707031 C 752.945312 377.425781 749.746094 378.925781 742 383.179688 C 739.523438 384.539062 736.890625 385.976562 736.148438 386.378906 C 734.394531 387.332031 728.585938 391.378906 726.703125 392.964844 C 725.890625 393.644531 725.089844 394.203125 724.914062 394.203125 C 724.15625 394.203125 714.324219 403.214844 706.753906 410.851562 C 699.527344 418.140625 696.828125 421.128906 690.332031 429.019531 C 689.542969 429.976562 688.597656 431.097656 688.226562 431.511719 C 687.851562 431.929688 686.0625 434.234375 684.246094 436.636719 C 682.429688 439.035156 680.757812 441 680.535156 441 C 680.308594 441 680.125 441.382812 680.125 441.84375 C 680.125 442.308594 679.3125 443.574219 678.320312 444.65625 C 677.328125 445.742188 676.390625 447.03125 676.230469 447.527344 C 676.074219 448.023438 675.269531 449.308594 674.449219 450.382812 C 672.355469 453.128906 670.253906 458.859375 669.75 463.214844 C 669.203125 467.914062 670.128906 473 672.050781 475.839844 C 673.683594 478.265625 674 478.507812 676.71875 479.410156 C 680.5 480.671875 682.777344 480.414062 685.8125 478.382812 C 690.308594 475.371094 691.214844 474.175781 694.535156 466.875 C 697.375 460.640625 704.933594 445.734375 707.984375 440.359375 C 709.492188 437.707031 710.722656 435.441406 710.722656 435.324219 C 710.722656 435.210938 711.105469 434.566406 711.574219 433.894531 C 712.039062 433.226562 714.011719 429.988281 715.960938 426.703125 C 720.390625 419.226562 720.417969 419.1875 727.4375 408.996094 C 729.683594 405.738281 737.214844 396.398438 739.023438 394.628906 C 739.667969 393.996094 740.691406 392.882812 741.289062 392.152344 C 744.398438 388.386719 748.792969 383.804688 751.414062 381.601562 C 754.40625 379.085938 754.929688 378.1875 753.671875 377.707031 Z M 750.738281 361.734375 C 744.847656 360.523438 720.433594 361.160156 712.378906 362.738281 C 709.945312 363.214844 707.414062 363.605469 706.753906 363.613281 C 706.089844 363.617188 704.03125 364.015625 702.175781 364.503906 C 700.316406 364.992188 698.121094 365.390625 697.292969 365.394531 C 696.464844 365.398438 695.25 365.679688 694.59375 366.015625 C 693.28125 366.6875 686.722656 368.417969 682.824219 369.125 C 681.464844 369.371094 680.25 369.714844 680.125 369.890625 C 680 370.0625 678.988281 370.460938 677.875 370.769531 C 670.007812 372.964844 669.980469 372.976562 660.550781 376.425781 C 658.074219 377.332031 655.242188 378.363281 654.25 378.71875 C 653.261719 379.074219 651.914062 379.667969 651.257812 380.035156 C 650.597656 380.402344 649.820312 380.703125 649.523438 380.703125 C 649.230469 380.703125 648.347656 380.992188 647.570312 381.34375 C 646.789062 381.695312 644.632812 382.621094 642.777344 383.398438 C 640.917969 384.175781 638.1875 385.394531 636.699219 386.105469 C 635.214844 386.8125 633.015625 387.816406 631.808594 388.332031 C 625.535156 391.011719 616.785156 398.3125 615.765625 401.710938 C 614.636719 405.472656 616.316406 408.367188 620.320312 409.570312 C 623.703125 410.582031 629.101562 409.003906 635.125 405.246094 C 636.488281 404.394531 638.207031 403.371094 638.949219 402.972656 C 639.695312 402.574219 641.515625 401.550781 643 400.707031 C 653.234375 394.875 677.546875 382.953125 679.199219 382.953125 C 679.722656 382.953125 680.125 382.660156 680.125 382.277344 C 680.125 381.878906 680.539062 381.601562 681.136719 381.601562 C 681.695312 381.597656 682.757812 381.28125 683.5 380.890625 C 684.8125 380.207031 689.488281 378.363281 694.523438 376.550781 C 695.886719 376.058594 697.605469 375.386719 698.347656 375.058594 C 699.09375 374.730469 700.382812 374.324219 701.222656 374.160156 C 702.058594 373.992188 703.578125 373.476562 704.597656 373.015625 C 705.617188 372.550781 706.863281 372.167969 707.371094 372.164062 C 707.878906 372.15625 708.542969 371.90625 708.847656 371.601562 C 709.148438 371.296875 710.457031 370.820312 711.75 370.535156 C 713.042969 370.253906 716.125 369.472656 718.597656 368.804688 C 721.074219 368.136719 724.011719 367.421875 725.125 367.214844 C 726.238281 367.007812 728.394531 366.515625 729.914062 366.121094 C 731.433594 365.726562 733.660156 365.398438 734.863281 365.390625 C 736.066406 365.382812 737.414062 365.097656 737.859375 364.757812 C 738.402344 364.347656 740.730469 364.042969 744.835938 363.839844 C 748.226562 363.671875 751.363281 363.433594 751.808594 363.308594 C 753.054688 362.957031 752.460938 362.089844 750.738281 361.734375 Z M 744.082031 349.175781 C 742.441406 348.179688 740.289062 346.765625 739.296875 346.03125 C 738.308594 345.300781 736.183594 343.785156 734.574219 342.667969 C 732.964844 341.554688 730.433594 339.773438 728.949219 338.714844 C 727.464844 337.65625 725.617188 336.394531 724.84375 335.910156 C 724.070312 335.425781 722.550781 334.4375 721.46875 333.710938 C 720.386719 332.988281 717.371094 331.1875 714.773438 329.714844 C 712.175781 328.238281 709.476562 326.554688 708.777344 325.96875 C 708.078125 325.382812 707.304688 324.90625 707.058594 324.90625 C 706.816406 324.90625 705.96875 324.417969 705.183594 323.828125 C 704.394531 323.234375 701.730469 321.710938 699.265625 320.449219 C 696.800781 319.183594 694.613281 317.84375 694.40625 317.476562 C 694.199219 317.105469 693.433594 316.804688 692.703125 316.804688 C 691.972656 316.804688 691.375 316.628906 691.375 316.410156 C 691.375 316.191406 690.714844 315.753906 689.910156 315.4375 C 689.109375 315.121094 687.03125 314.210938 685.300781 313.417969 C 683.566406 312.628906 681.695312 311.835938 681.136719 311.660156 C 680.582031 311.488281 680.125 311.15625 680.125 310.925781 C 680.125 310.695312 679.734375 310.503906 679.257812 310.503906 C 678.78125 310.503906 676.882812 309.898438 675.035156 309.160156 C 671.632812 307.800781 662.875 305.339844 658.75 304.585938 C 657.511719 304.359375 654.976562 303.878906 653.117188 303.515625 C 651.234375 303.148438 647.203125 302.855469 644.039062 302.855469 C 638.929688 302.855469 637.949219 302.988281 634.476562 304.171875 C 628.058594 306.355469 624.984375 309.632812 623.410156 315.972656 C 622.964844 317.765625 623.03125 318.59375 623.859375 321.796875 C 625.996094 330.035156 630.597656 334.371094 637.824219 334.953125 C 646.539062 335.660156 649.652344 336.160156 650.230469 336.945312 C 650.542969 337.375 650.761719 337.765625 650.714844 337.8125 C 650.667969 337.863281 649.136719 338.210938 647.308594 338.59375 C 645.484375 338.972656 643.160156 339.726562 642.144531 340.261719 C 641.132812 340.800781 639.832031 341.492188 639.261719 341.796875 C 638.691406 342.101562 637.238281 343.40625 636.035156 344.695312 C 633.714844 347.179688 632.746094 349.75 632.796875 353.292969 C 632.847656 357.117188 635.902344 360.84375 640.976562 363.28125 C 644.550781 364.996094 652.1875 366.449219 655.6875 366.082031 C 660.070312 365.621094 664.988281 364.691406 666.046875 364.121094 C 666.582031 363.835938 667.902344 363.605469 668.988281 363.605469 C 670.074219 363.605469 672.464844 363.203125 674.304688 362.714844 C 676.144531 362.226562 678.460938 361.820312 679.449219 361.8125 C 680.441406 361.804688 682.933594 361.394531 684.992188 360.902344 C 687.046875 360.40625 689.722656 360.003906 690.929688 360.003906 C 692.140625 360.003906 694.296875 359.699219 695.722656 359.328125 C 697.144531 358.957031 700.410156 358.457031 702.976562 358.210938 C 705.539062 357.96875 708.382812 357.578125 709.292969 357.339844 C 710.203125 357.101562 713.378906 356.675781 716.347656 356.394531 C 719.320312 356.109375 722.214844 355.695312 722.78125 355.46875 C 723.347656 355.242188 726.488281 354.933594 729.753906 354.785156 C 733.023438 354.632812 736.976562 354.230469 738.539062 353.882812 C 740.101562 353.539062 742.539062 353.253906 743.960938 353.253906 C 748.535156 353.253906 748.574219 351.894531 744.082031 349.175781 Z M 679.425781 498.390625 C 679.058594 497.902344 678.5625 496.777344 678.324219 495.894531 C 677.242188 491.882812 672.589844 490.191406 668.785156 492.425781 C 666.71875 493.636719 664.390625 495.96875 663.472656 497.742188 C 663.164062 498.335938 662.554688 499.230469 662.117188 499.726562 C 661.179688 500.78125 658.527344 507.285156 658.527344 508.515625 C 658.527344 508.984375 658.101562 510.4375 657.585938 511.746094 C 656.765625 513.824219 656.667969 514.863281 656.804688 519.976562 C 656.929688 524.417969 657.148438 526.148438 657.730469 527.175781 C 658.148438 527.917969 658.804688 529.175781 659.183594 529.972656 C 660.136719 531.96875 661.324219 532.476562 664.550781 532.269531 C 667.183594 532.101562 667.40625 531.992188 669.828125 529.636719 C 672.089844 527.433594 675.175781 523.417969 675.175781 522.679688 C 675.175781 522.527344 675.808594 521.144531 676.578125 519.613281 C 677.351562 518.078125 678.253906 515.308594 678.585938 513.457031 C 678.914062 511.605469 679.398438 510.015625 679.65625 509.929688 C 680.4375 509.671875 680.234375 499.460938 679.425781 498.390625 Z M 666.1875 543.867188 C 665.523438 541.542969 664.925781 540.4375 663.824219 539.488281 C 661.726562 537.679688 659.496094 537.058594 657.5 537.71875 C 655.652344 538.328125 651.863281 542.316406 651.507812 544.027344 C 651.378906 544.660156 650.980469 545.839844 650.625 546.652344 C 649.265625 549.75 650.523438 557.273438 652.808594 559.722656 C 653.941406 560.9375 656.785156 562.5 657.863281 562.5 C 659.15625 562.5 662.523438 560.21875 664.015625 558.335938 C 665.558594 556.390625 666.964844 551.925781 667.035156 548.773438 C 667.058594 547.78125 666.675781 545.574219 666.1875 543.863281 Z M 658.628906 478.097656 C 658.191406 476.875 657.691406 475.648438 657.515625 475.371094 C 657.046875 474.636719 654.65625 474.261719 652.574219 474.59375 C 648.921875 475.179688 642.640625 482.628906 637.238281 492.785156 C 634.027344 498.824219 631.375 505.984375 629.003906 515.023438 C 627.835938 519.472656 627.585938 530.976562 628.605469 533.414062 C 630.121094 537.039062 632.824219 538.183594 635.925781 536.511719 C 641.246094 533.640625 646.855469 526.167969 652.265625 514.742188 C 652.671875 513.886719 654.898438 507.917969 656.023438 504.675781 C 657.511719 500.375 658.976562 494.441406 659 492.589844 C 659.015625 491.5625 659.207031 489.914062 659.425781 488.925781 C 659.988281 486.40625 659.570312 480.746094 658.628906 478.097656 Z M 633.609375 375.175781 C 632.34375 372.210938 629.3125 370.804688 624.179688 370.804688 C 620.207031 370.804688 614.203125 374.050781 612.535156 377.105469 C 609.855469 382.007812 615.550781 387.578125 622.507812 386.851562 C 625.289062 386.558594 627.464844 385.707031 630.726562 383.628906 C 632.785156 382.316406 633.445312 381.242188 633.914062 378.453125 C 634.019531 377.835938 634.132812 377.171875 634.164062 376.976562 C 634.199219 376.78125 633.949219 375.972656 633.609375 375.175781 Z M 631.582031 479.949219 C 630.828125 478.242188 630.28125 477.699219 628.558594 476.933594 C 625.640625 475.644531 623.742188 476.046875 619.640625 478.832031 C 617.800781 480.082031 616.050781 481.394531 615.753906 481.753906 C 614.382812 483.402344 614.644531 482.070312 616.355469 478.6875 C 617.976562 475.472656 618.25 474.503906 618.402344 471.457031 C 618.617188 467.085938 617.78125 464.644531 615.300781 462.40625 C 613.019531 460.34375 610.738281 460.25 607.457031 462.085938 C 605.703125 463.066406 604.847656 463.972656 603.535156 466.234375 C 600.824219 470.898438 600.375 475.167969 602.085938 479.960938 C 603.421875 483.695312 607.175781 485.609375 610.191406 484.089844 C 611.753906 483.300781 614.425781 482.738281 614.425781 483.199219 C 614.425781 483.378906 613.722656 484.640625 612.863281 486 C 607.382812 494.707031 605.503906 503.972656 607.902344 510.449219 C 608.84375 512.992188 611.488281 514.988281 613.835938 514.925781 C 616.011719 514.871094 619.769531 512.945312 622.484375 510.488281 C 624.601562 508.574219 628.828125 502.820312 628.828125 501.847656 C 628.828125 501.660156 629.433594 500.066406 630.171875 498.304688 C 632.433594 492.921875 632.898438 490.6875 632.691406 486.152344 C 632.5625 483.308594 632.21875 481.382812 631.582031 479.949219 Z M 628.195312 351.09375 C 626.640625 348.109375 622.882812 346.121094 618.074219 345.753906 C 615.101562 345.523438 614.054688 345.660156 610.585938 346.726562 C 605.710938 348.226562 605.382812 348.371094 602.382812 350.269531 C 598.972656 352.425781 594.175781 357.269531 594.175781 358.554688 C 594.175781 358.800781 593.777344 359.886719 593.285156 360.96875 C 592.796875 362.046875 592.390625 363.648438 592.386719 364.527344 C 592.367188 367.535156 596.527344 372.585938 599.050781 372.621094 C 599.710938 372.628906 600.757812 372.925781 601.378906 373.277344 C 604.054688 374.808594 610.054688 373.863281 616.027344 370.972656 C 620.707031 368.707031 624.496094 365.546875 626.628906 362.136719 C 628.652344 358.894531 629.425781 353.460938 628.195312 351.09375 Z M 616.886719 296.984375 C 615.082031 294.125 612.707031 292.679688 606.328125 290.5625 C 605.355469 290.238281 601.480469 290.039062 596.203125 290.035156 C 587.617188 290.03125 586.808594 290.132812 579.101562 292.164062 C 576.515625 292.847656 566.21875 297.417969 565.152344 298.355469 C 564.65625 298.792969 563.605469 299.476562 562.8125 299.878906 C 562.019531 300.277344 561.210938 300.878906 561.011719 301.214844 C 560.816406 301.550781 560.195312 302.066406 559.632812 302.359375 C 559.074219 302.652344 558.0625 303.722656 557.382812 304.734375 C 556.707031 305.746094 555.804688 307.101562 555.378906 307.742188 C 554.390625 309.226562 553.941406 312.195312 554.320312 314.722656 C 554.707031 317.296875 556.976562 319.9375 560.074219 321.421875 C 566.246094 324.371094 565.328125 324.203125 575.039062 324.183594 C 582.625 324.167969 584.328125 324.039062 585.800781 323.378906 C 586.761719 322.945312 588.988281 322.480469 590.75 322.339844 C 592.511719 322.199219 594.257812 321.839844 594.628906 321.535156 C 595 321.234375 596.878906 320.421875 598.804688 319.730469 C 600.730469 319.039062 602.460938 318.195312 602.65625 317.851562 C 602.847656 317.507812 603.800781 317.097656 604.777344 316.941406 C 605.753906 316.785156 606.753906 316.402344 607 316.089844 C 607.25 315.777344 608.296875 315.089844 609.328125 314.5625 C 612.765625 312.804688 616.78125 307.738281 617.878906 303.777344 C 618.582031 301.238281 618.28125 299.191406 616.886719 296.984375 Z M 617.339844 328.035156 C 616.527344 326.460938 612.585938 323.238281 610.894531 322.765625 C 610.238281 322.582031 606.421875 322.4375 602.417969 322.449219 C 596.414062 322.460938 594.988281 322.589844 594.316406 323.183594 C 593.867188 323.574219 592.996094 324.050781 592.378906 324.242188 C 588.015625 325.566406 579.328125 331.25 579.328125 332.777344 C 579.328125 333.089844 578.992188 333.621094 578.582031 333.960938 C 577.160156 335.140625 576.199219 338.054688 576.1875 341.222656 C 576.179688 344.230469 576.203125 344.292969 578.265625 346.476562 C 579.984375 348.300781 580.847656 348.820312 583.171875 349.453125 C 588.683594 350.945312 598.46875 349.574219 604.617188 346.449219 C 605.53125 345.984375 606.671875 345.605469 607.148438 345.605469 C 607.625 345.605469 608.269531 345.300781 608.582031 344.925781 C 608.890625 344.550781 609.875 343.824219 610.773438 343.3125 C 612.675781 342.21875 616.113281 338.222656 617.226562 335.8125 C 618.191406 333.71875 618.25 329.792969 617.339844 328.035156 Z M 611.066406 444.894531 C 608.851562 441.113281 607.304688 440.269531 603.003906 440.488281 C 601.191406 440.578125 598.847656 443.160156 598.453125 445.503906 C 597.804688 449.332031 599.804688 454.003906 602.890625 455.886719 C 604.625 456.945312 608.214844 457.054688 609.027344 456.078125 C 609.335938 455.707031 609.859375 455.402344 610.191406 455.402344 C 611.300781 455.402344 612.140625 453.035156 612.160156 449.855469 C 612.171875 447.382812 611.960938 446.417969 611.066406 444.894531 Z M 591.589844 188.324219 C 588.542969 185.683594 587.257812 184.964844 583.601562 183.863281 C 581.375 183.1875 578.238281 182.351562 576.628906 182 C 575.019531 181.652344 573.398438 181.246094 573.027344 181.101562 C 572.65625 180.957031 566.917969 180.566406 560.277344 180.230469 C 548.191406 179.625 537.707031 179.863281 531.664062 180.890625 C 518.4375 183.132812 514.371094 184.371094 509.917969 187.519531 C 508.371094 188.609375 508.230469 188.886719 508.230469 190.851562 C 508.230469 193.003906 509.019531 194.410156 510.230469 194.410156 C 510.554688 194.410156 511.066406 194.703125 511.367188 195.066406 C 512.15625 196.019531 518.21875 198.242188 522.402344 199.113281 C 527.589844 200.191406 542.507812 201.429688 549.851562 201.390625 C 557.601562 201.347656 569.324219 200.410156 572.351562 199.589844 C 573.589844 199.253906 575.792969 198.867188 577.25 198.726562 C 578.703125 198.585938 580.121094 198.292969 580.398438 198.074219 C 580.675781 197.855469 581.628906 197.546875 582.515625 197.386719 C 583.398438 197.226562 585.757812 196.308594 587.75 195.34375 C 590.554688 193.988281 591.480469 193.300781 591.839844 192.3125 C 592.542969 190.378906 592.460938 189.082031 591.589844 188.324219 Z M 574.59375 277.015625 C 574.089844 275.289062 573.375 274.164062 571.914062 272.816406 C 568.667969 269.808594 566.484375 268.773438 562.101562 268.164062 C 557.527344 267.53125 552.421875 268.171875 550.582031 269.617188 C 549.988281 270.078125 549.273438 270.457031 548.988281 270.457031 C 548.703125 270.457031 547.523438 271.417969 546.367188 272.59375 C 544.628906 274.363281 544.152344 275.226562 543.597656 277.609375 C 542.820312 280.941406 542.992188 282.191406 544.65625 285.425781 C 545.652344 287.363281 546.417969 288.117188 548.984375 289.675781 C 552.796875 291.996094 555.847656 292.691406 560.878906 292.386719 C 568.300781 291.9375 573.414062 288.273438 574.855469 282.382812 C 575.367188 280.292969 575.328125 279.550781 574.59375 277.015625 Z M 569.851562 215.707031 C 568.933594 213.546875 564.753906 208.808594 563.769531 208.808594 C 563.484375 208.808594 562.0625 208.195312 560.605469 207.445312 C 557.464844 205.832031 550.386719 204.308594 546.023438 204.308594 C 538.214844 204.308594 530.324219 207.292969 525.714844 211.996094 C 522.714844 215.050781 522.023438 216.835938 522.253906 220.886719 C 522.40625 223.5625 522.625 224.148438 524.273438 226.359375 C 525.289062 227.71875 526.597656 229.265625 527.1875 229.792969 C 528.566406 231.035156 533.003906 233.109375 534.28125 233.109375 C 534.828125 233.109375 535.921875 233.445312 536.714844 233.855469 C 538.867188 234.972656 552.695312 234.992188 555.195312 233.882812 C 556.152344 233.457031 557.25 233.109375 557.628906 233.109375 C 560.429688 233.109375 568.59375 226.585938 570.082031 223.160156 C 571.015625 221.003906 570.929688 218.242188 569.851562 215.707031 Z M 566.046875 245.0625 C 563.085938 240.007812 554.265625 237.730469 545.046875 239.636719 C 540.8125 240.515625 537.878906 241.773438 535.03125 243.9375 C 530.894531 247.082031 529.378906 249.621094 529.378906 253.402344 C 529.378906 258.683594 532.421875 261.75 539.769531 263.878906 C 542.824219 264.761719 544.230469 264.773438 549.21875 263.957031 C 556.441406 262.773438 559.316406 261.582031 563.023438 258.230469 C 567.070312 254.574219 568.351562 248.996094 566.046875 245.0625 Z M 758.113281 246.042969 C 758 245.613281 758 244.902344 758.113281 244.46875 C 758.226562 244.035156 758.316406 244.390625 758.316406 245.257812 C 758.316406 246.125 758.226562 246.476562 758.113281 246.042969 Z M 756.652344 238.945312 C 756.277344 239.519531 756.183594 239.507812 755.941406 238.875 C 755.535156 237.824219 755.867188 235.132812 756.398438 235.132812 C 757 235.132812 757.195312 238.105469 756.652344 238.945312 Z M 754.710938 231.195312 C 754.382812 231.089844 754.035156 229.84375 753.878906 228.234375 C 753.730469 226.703125 753.300781 225.101562 752.921875 224.667969 C 752.539062 224.238281 752.09375 222.746094 751.925781 221.355469 C 751.757812 219.964844 751.230469 218.089844 750.746094 217.195312 C 750.265625 216.296875 749.871094 215 749.871094 214.308594 C 749.871094 213.621094 749.585938 212.648438 749.234375 212.148438 C 748.882812 211.648438 748.453125 210.4375 748.273438 209.460938 C 748.097656 208.484375 747.699219 207.175781 747.390625 206.558594 C 747.082031 205.941406 746.683594 204.722656 746.503906 203.859375 C 746.320312 202.992188 745.917969 201.980469 745.605469 201.609375 C 745.296875 201.238281 744.929688 200.425781 744.792969 199.808594 C 744.429688 198.148438 740.648438 189.097656 739.335938 186.757812 C 738.714844 185.644531 737.917969 184.105469 737.566406 183.339844 C 737.214844 182.574219 736.160156 180.851562 735.222656 179.515625 C 734.289062 178.179688 733.105469 176.476562 732.59375 175.734375 C 729.628906 171.414062 728.203125 170.773438 724.679688 172.183594 C 722.503906 173.054688 718.710938 172.855469 712.953125 171.574219 C 708.496094 170.578125 705.230469 168.933594 702.398438 166.261719 C 695.445312 159.695312 701.230469 154.691406 713.265625 156.859375 C 721.546875 158.347656 726.835938 161.792969 729.425781 167.378906 C 729.949219 168.507812 731.414062 170.429688 732.683594 171.644531 C 737.152344 175.921875 744.277344 189.320312 747.429688 199.359375 C 748.089844 201.460938 749.011719 204.132812 749.476562 205.292969 C 749.941406 206.453125 750.324219 207.929688 750.324219 208.578125 C 750.324219 209.222656 750.628906 210.347656 751.003906 211.074219 C 751.378906 211.796875 751.8125 213.359375 751.964844 214.539062 C 752.117188 215.71875 752.5 216.988281 752.808594 217.359375 C 753.121094 217.730469 753.523438 219.550781 753.707031 221.40625 C 753.886719 223.265625 754.3125 225.183594 754.652344 225.671875 C 755.457031 226.824219 755.503906 231.460938 754.710938 231.195312 Z M 754.710938 231.195312 " fill-opacity="1" fill-rule="nonzero"/></svg>